<svg width="89" height="52" viewBox="0 0 89 52" fill="none" xmlns="http://www.w3.org/2000/svg">
<path d="M0 2C0 0.895432 0.89543 0 2 0H86.5361C87.6407 0 88.5361 0.895431 88.5361 2V49.2236C88.5361 50.3282 87.6407 51.2236 86.5361 51.2236H2C0.895429 51.2236 0 50.3282 0 49.2236V2Z" fill="#DA6C49"/>
<path d="M10.1992 29.7503V7.35034H18.0392L21.9112 26.8703H22.4872L26.3592 7.35034H34.1992V29.7503H30.1032V10.4543H29.5272L25.6872 29.7503H18.7112L14.8712 10.4543H14.2952V29.7503H10.1992Z" fill="#FAFAF8"/>
<path d="M45.33 30.1983C42.5566 30.1983 40.3593 29.4303 38.738 27.8943C37.1166 26.337 36.306 24.1183 36.306 21.2383V15.8623C36.306 12.9823 37.1166 10.7743 38.738 9.23834C40.3593 7.68101 42.5566 6.90234 45.33 6.90234C48.082 6.90234 50.2046 7.65968 51.698 9.17435C53.2126 10.6677 53.97 12.7263 53.97 15.3503V15.5423H49.81V15.2223C49.81 13.8997 49.4366 12.8117 48.69 11.9583C47.9646 11.105 46.8446 10.6783 45.33 10.6783C43.8366 10.6783 42.6633 11.137 41.81 12.0543C40.9566 12.9717 40.53 14.2197 40.53 15.7983V21.3023C40.53 22.8597 40.9566 24.1077 41.81 25.0463C42.6633 25.9637 43.8366 26.4223 45.33 26.4223C46.8446 26.4223 47.9646 25.9957 48.69 25.1423C49.4366 24.2677 49.81 23.1797 49.81 21.8783V21.3023H53.97V21.7503C53.97 24.3743 53.2126 26.4437 51.698 27.9583C50.2046 29.4517 48.082 30.1983 45.33 30.1983Z" fill="#FAFAF8"/>
<path d="M55.8117 29.7503V7.35034H65.0277C66.4357 7.35034 67.673 7.63834 68.7397 8.21434C69.8277 8.76901 70.6704 9.55834 71.2677 10.5823C71.8864 11.6063 72.1957 12.8223 72.1957 14.2303V14.6783C72.1957 16.065 71.8757 17.281 71.2357 18.3263C70.6171 19.3503 69.7637 20.1503 68.6757 20.7263C67.6091 21.281 66.3931 21.5583 65.0277 21.5583H60.0357V29.7503H55.8117ZM60.0357 17.7183H64.6117C65.6144 17.7183 66.425 17.441 67.0437 16.8863C67.6624 16.3317 67.9717 15.5743 67.9717 14.6143V14.2943C67.9717 13.3343 67.6624 12.577 67.0437 12.0223C66.425 11.4677 65.6144 11.1903 64.6117 11.1903H60.0357V17.7183Z" fill="#FAFAF8"/>
<path fill-rule="evenodd" clip-rule="evenodd" d="M73.8762 11.3183C74.3882 11.7877 75.0069 12.0223 75.7322 12.0223C76.4789 12.0223 77.0975 11.7877 77.5882 11.3183C78.0789 10.849 78.3242 10.2303 78.3242 9.46235C78.3242 8.69434 78.0789 8.07568 77.5882 7.60634C77.0975 7.13701 76.4789 6.90234 75.7322 6.90234C75.0069 6.90234 74.3882 7.13701 73.8762 7.60634C73.3856 8.07568 73.1402 8.69434 73.1402 9.46235C73.1402 10.2303 73.3856 10.849 73.8762 11.3183Z" fill="#FAFAF8"/>
<path d="M12.5191 44.4646C11.9124 44.4646 11.3991 44.3246 10.9791 44.0446C10.5657 43.7646 10.3157 43.3212 10.2291 42.7146L10.9791 42.5446C11.0324 42.8646 11.1324 43.1179 11.2791 43.3046C11.4257 43.4846 11.6057 43.6146 11.8191 43.6946C12.0391 43.7679 12.2724 43.8046 12.5191 43.8046C12.8857 43.8046 13.1757 43.7312 13.3891 43.5846C13.6024 43.4379 13.7091 43.2412 13.7091 42.9946C13.7091 42.7412 13.6057 42.5646 13.3991 42.4646C13.1991 42.3579 12.9224 42.2712 12.5691 42.2046L12.1591 42.1346C11.8457 42.0812 11.5591 41.9979 11.2991 41.8846C11.0391 41.7712 10.8324 41.6179 10.6791 41.4246C10.5257 41.2312 10.4491 40.9879 10.4491 40.6946C10.4491 40.2546 10.6191 39.9112 10.9591 39.6646C11.2991 39.4179 11.7491 39.2946 12.3091 39.2946C12.8624 39.2946 13.3091 39.4212 13.6491 39.6746C13.9957 39.9212 14.2191 40.2712 14.3191 40.7246L13.5791 40.9146C13.5191 40.5612 13.3757 40.3146 13.1491 40.1746C12.9224 40.0279 12.6424 39.9546 12.3091 39.9546C11.9757 39.9546 11.7124 40.0179 11.5191 40.1446C11.3257 40.2646 11.2291 40.4446 11.2291 40.6846C11.2291 40.9179 11.3191 41.0912 11.4991 41.2046C11.6857 41.3112 11.9324 41.3912 12.2391 41.4446L12.6491 41.5146C12.9957 41.5746 13.3057 41.6579 13.5791 41.7646C13.8591 41.8646 14.0791 42.0112 14.2391 42.2046C14.4057 42.3979 14.4891 42.6512 14.4891 42.9646C14.4891 43.4446 14.3091 43.8146 13.9491 44.0746C13.5957 44.3346 13.1191 44.4646 12.5191 44.4646Z" fill="#FAFAF8"/>
<path d="M17.2834 44.4646C16.9434 44.4646 16.6334 44.4046 16.3534 44.2846C16.0734 44.1646 15.8534 43.9912 15.6934 43.7646C15.5334 43.5379 15.4534 43.2612 15.4534 42.9346C15.4534 42.6012 15.5334 42.3279 15.6934 42.1146C15.8534 41.8946 16.0734 41.7312 16.3534 41.6246C16.6334 41.5112 16.9468 41.4546 17.2934 41.4546H18.9434V41.0946C18.9434 40.7479 18.8401 40.4746 18.6334 40.2746C18.4334 40.0746 18.1334 39.9746 17.7334 39.9746C17.3401 39.9746 17.0334 40.0712 16.8134 40.2646C16.5934 40.4512 16.4434 40.7046 16.3634 41.0246L15.6234 40.7846C15.7034 40.5112 15.8301 40.2646 16.0034 40.0446C16.1768 39.8179 16.4068 39.6379 16.6934 39.5046C16.9868 39.3646 17.3368 39.2946 17.7434 39.2946C18.3701 39.2946 18.8568 39.4579 19.2034 39.7846C19.5501 40.1046 19.7234 40.5579 19.7234 41.1446V43.3546C19.7234 43.5546 19.8168 43.6546 20.0034 43.6546H20.4534V44.3246H19.7634C19.5434 44.3246 19.3668 44.2646 19.2334 44.1446C19.1001 44.0179 19.0334 43.8512 19.0334 43.6446V43.5946H18.9134C18.8401 43.7212 18.7401 43.8546 18.6134 43.9946C18.4934 44.1279 18.3268 44.2379 18.1134 44.3246C17.9001 44.4179 17.6234 44.4646 17.2834 44.4646ZM17.3734 43.7846C17.8401 43.7846 18.2168 43.6479 18.5034 43.3746C18.7968 43.0946 18.9434 42.7046 18.9434 42.2046V42.0946H17.3234C17.0101 42.0946 16.7501 42.1646 16.5434 42.3046C16.3434 42.4379 16.2434 42.6412 16.2434 42.9146C16.2434 43.1879 16.3468 43.4012 16.5534 43.5546C16.7668 43.7079 17.0401 43.7846 17.3734 43.7846Z" fill="#FAFAF8"/>
<path d="M21.5354 44.3246V39.4346H22.3054V40.2646H22.4454C22.552 40.0312 22.732 39.8212 22.9854 39.6346C23.2454 39.4412 23.6254 39.3446 24.1254 39.3446C24.4921 39.3446 24.8187 39.4212 25.1054 39.5746C25.3987 39.7279 25.6321 39.9546 25.8054 40.2546C25.9787 40.5546 26.0654 40.9246 26.0654 41.3646V44.3246H25.2754V41.4246C25.2754 40.9379 25.1521 40.5846 24.9054 40.3646C24.6654 40.1446 24.3387 40.0346 23.9254 40.0346C23.452 40.0346 23.0654 40.1879 22.7654 40.4946C22.472 40.8012 22.3254 41.2579 22.3254 41.8646V44.3246H21.5354Z" fill="#FAFAF8"/>
<path d="M27.6682 44.3246V39.4346H28.4582V44.3246H27.6682ZM28.0682 38.6746C27.8949 38.6746 27.7482 38.6179 27.6282 38.5046C27.5149 38.3912 27.4582 38.2479 27.4582 38.0746C27.4582 37.8946 27.5149 37.7479 27.6282 37.6346C27.7482 37.5212 27.8949 37.4646 28.0682 37.4646C28.2415 37.4646 28.3849 37.5212 28.4982 37.6346C28.6115 37.7479 28.6682 37.8946 28.6682 38.0746C28.6682 38.2479 28.6115 38.3912 28.4982 38.5046C28.3849 38.6179 28.2415 38.6746 28.0682 38.6746Z" fill="#FAFAF8"/>
<path d="M31.9194 44.3246C31.6394 44.3246 31.4227 44.2479 31.2694 44.0946C31.1227 43.9412 31.0494 43.7312 31.0494 43.4646V40.1246H29.5794V39.4346H31.0494V37.6946H31.8394V39.4346H33.4394V40.1246H31.8394V43.3446C31.8394 43.5446 31.936 43.6446 32.1294 43.6446H33.2194V44.3246H31.9194Z" fill="#FAFAF8"/>
<path d="M35.309 46.3246V45.6246H38.109C38.3023 45.6246 38.399 45.5246 38.399 45.3246V43.5446H38.259C38.1923 43.6846 38.089 43.8246 37.949 43.9646C37.8156 44.0979 37.639 44.2079 37.419 44.2946C37.199 44.3746 36.9223 44.4146 36.589 44.4146C36.2356 44.4146 35.909 44.3379 35.609 44.1846C35.3156 44.0312 35.0823 43.8046 34.909 43.5046C34.7423 43.2046 34.659 42.8379 34.659 42.4046V39.4346H35.449V42.3446C35.449 42.8246 35.569 43.1746 35.809 43.3946C36.0556 43.6146 36.3856 43.7246 36.799 43.7246C37.2656 43.7246 37.649 43.5712 37.949 43.2646C38.249 42.9579 38.399 42.5012 38.399 41.8946V39.4346H39.189V45.4646C39.189 45.7312 39.1123 45.9412 38.959 46.0946C38.8123 46.2479 38.5956 46.3246 38.309 46.3246H35.309Z" fill="#FAFAF8"/>
<path d="M40.802 42.1146V41.3846H43.762V42.1146H40.802Z" fill="#FAFAF8"/>
<path d="M45.3928 44.3246V39.4346H46.1828V44.3246H45.3928ZM45.7928 38.6746C45.6195 38.6746 45.4728 38.6179 45.3528 38.5046C45.2395 38.3912 45.1828 38.2479 45.1828 38.0746C45.1828 37.8946 45.2395 37.7479 45.3528 37.6346C45.4728 37.5212 45.6195 37.4646 45.7928 37.4646C45.9661 37.4646 46.1095 37.5212 46.2228 37.6346C46.3361 37.7479 46.3928 37.8946 46.3928 38.0746C46.3928 38.2479 46.3361 38.3912 46.2228 38.5046C46.1095 38.6179 45.9661 38.6746 45.7928 38.6746Z" fill="#FAFAF8"/>
<path d="M47.844 44.3246V39.4346H48.614V40.0446H48.754C48.8473 39.8712 49.0006 39.7112 49.214 39.5646C49.4273 39.4179 49.7273 39.3446 50.114 39.3446C50.494 39.3446 50.8006 39.4279 51.034 39.5946C51.274 39.7612 51.4473 39.9646 51.554 40.2046H51.694C51.8073 39.9646 51.9773 39.7612 52.204 39.5946C52.4373 39.4279 52.7606 39.3446 53.174 39.3446C53.5006 39.3446 53.7873 39.4112 54.034 39.5446C54.2806 39.6779 54.474 39.8712 54.614 40.1246C54.7606 40.3712 54.834 40.6679 54.834 41.0146V44.3246H54.044V41.0846C54.044 40.7579 53.9473 40.5012 53.754 40.3146C53.5673 40.1212 53.304 40.0246 52.964 40.0246C52.604 40.0246 52.3073 40.1412 52.074 40.3746C51.8473 40.6079 51.734 40.9446 51.734 41.3846V44.3246H50.944V41.0846C50.944 40.7579 50.8473 40.5012 50.654 40.3146C50.4673 40.1212 50.204 40.0246 49.864 40.0246C49.504 40.0246 49.2073 40.1412 48.974 40.3746C48.7473 40.6079 48.634 40.9446 48.634 41.3846V44.3246H47.844Z" fill="#FAFAF8"/>
<path d="M57.9475 44.4646C57.6075 44.4646 57.2975 44.4046 57.0175 44.2846C56.7375 44.1646 56.5175 43.9912 56.3575 43.7646C56.1975 43.5379 56.1175 43.2612 56.1175 42.9346C56.1175 42.6012 56.1975 42.3279 56.3575 42.1146C56.5175 41.8946 56.7375 41.7312 57.0175 41.6246C57.2975 41.5112 57.6108 41.4546 57.9575 41.4546H59.6075V41.0946C59.6075 40.7479 59.5042 40.4746 59.2975 40.2746C59.0975 40.0746 58.7975 39.9746 58.3975 39.9746C58.0042 39.9746 57.6975 40.0712 57.4775 40.2646C57.2575 40.4512 57.1075 40.7046 57.0275 41.0246L56.2875 40.7846C56.3675 40.5112 56.4942 40.2646 56.6675 40.0446C56.8408 39.8179 57.0708 39.6379 57.3575 39.5046C57.6508 39.3646 58.0008 39.2946 58.4075 39.2946C59.0342 39.2946 59.5208 39.4579 59.8675 39.7846C60.2142 40.1046 60.3875 40.5579 60.3875 41.1446V43.3546C60.3875 43.5546 60.4808 43.6546 60.6675 43.6546H61.1175V44.3246H60.4275C60.2075 44.3246 60.0308 44.2646 59.8975 44.1446C59.7642 44.0179 59.6975 43.8512 59.6975 43.6446V43.5946H59.5775C59.5042 43.7212 59.4042 43.8546 59.2775 43.9946C59.1575 44.1279 58.9908 44.2379 58.7775 44.3246C58.5642 44.4179 58.2875 44.4646 57.9475 44.4646ZM58.0375 43.7846C58.5042 43.7846 58.8808 43.6479 59.1675 43.3746C59.4608 43.0946 59.6075 42.7046 59.6075 42.2046V42.0946H57.9875C57.6742 42.0946 57.4142 42.1646 57.2075 42.3046C57.0075 42.4379 56.9075 42.6412 56.9075 42.9146C56.9075 43.1879 57.0108 43.4012 57.2175 43.5546C57.4308 43.7079 57.7042 43.7846 58.0375 43.7846Z" fill="#FAFAF8"/>
<path d="M61.8227 41.9046V41.7646C61.8227 41.2512 61.9261 40.8112 62.1327 40.4446C62.3394 40.0779 62.6194 39.7946 62.9727 39.5946C63.3261 39.3946 63.7127 39.2946 64.1327 39.2946C64.6461 39.2946 65.0394 39.3946 65.3127 39.5946C65.5927 39.7879 65.7994 40.0046 65.9327 40.2446H66.0727V39.4346H66.8227V45.4646C66.8227 45.7312 66.7494 45.9412 66.6027 46.0946C66.4561 46.2479 66.2427 46.3246 65.9627 46.3246H62.6427V45.6246H65.7527C65.9527 45.6246 66.0527 45.5246 66.0527 45.3246V43.4646H65.9127C65.8327 43.6112 65.7194 43.7546 65.5727 43.8946C65.4261 44.0346 65.2361 44.1512 65.0027 44.2446C64.7694 44.3312 64.4794 44.3746 64.1327 44.3746C63.7127 44.3746 63.3261 44.2746 62.9727 44.0746C62.6194 43.8746 62.3394 43.5912 62.1327 43.2246C61.9261 42.8512 61.8227 42.4112 61.8227 41.9046ZM64.3427 43.6746C64.8494 43.6746 65.2594 43.5146 65.5727 43.1946C65.8927 42.8746 66.0527 42.4346 66.0527 41.8746V41.7946C66.0527 41.2279 65.8927 40.7879 65.5727 40.4746C65.2594 40.1546 64.8494 39.9946 64.3427 39.9946C63.8427 39.9946 63.4294 40.1546 63.1027 40.4746C62.7827 40.7879 62.6227 41.2279 62.6227 41.7946V41.8746C62.6227 42.4346 62.7827 42.8746 63.1027 43.1946C63.4294 43.5146 63.8427 43.6746 64.3427 43.6746Z" fill="#FAFAF8"/>
<path d="M70.7187 44.4646C70.2254 44.4646 69.7921 44.3612 69.4187 44.1546C69.0454 43.9412 68.7554 43.6446 68.5487 43.2646C68.3421 42.8846 68.2387 42.4446 68.2387 41.9446V41.8246C68.2387 41.3179 68.3421 40.8746 68.5487 40.4946C68.7554 40.1146 69.0421 39.8212 69.4087 39.6146C69.7754 39.4012 70.1954 39.2946 70.6687 39.2946C71.1287 39.2946 71.5354 39.3946 71.8887 39.5946C72.2421 39.7879 72.5187 40.0679 72.7187 40.4346C72.9187 40.8012 73.0187 41.2312 73.0187 41.7246V42.0846H69.0287C69.0487 42.6112 69.2187 43.0246 69.5387 43.3246C69.8587 43.6179 70.2587 43.7646 70.7387 43.7646C71.1587 43.7646 71.4821 43.6679 71.7087 43.4746C71.9354 43.2812 72.1087 43.0512 72.2287 42.7846L72.9087 43.1146C72.8087 43.3212 72.6687 43.5279 72.4887 43.7346C72.3154 43.9412 72.0854 44.1146 71.7987 44.2546C71.5187 44.3946 71.1587 44.4646 70.7187 44.4646ZM69.0387 41.4346H72.2187C72.1921 40.9812 72.0354 40.6279 71.7487 40.3746C71.4687 40.1212 71.1087 39.9946 70.6687 39.9946C70.2221 39.9946 69.8554 40.1212 69.5687 40.3746C69.2821 40.6279 69.1054 40.9812 69.0387 41.4346Z" fill="#FAFAF8"/>
<path d="M76.3667 44.4646C75.76 44.4646 75.2467 44.3246 74.8267 44.0446C74.4134 43.7646 74.1634 43.3212 74.0767 42.7146L74.8267 42.5446C74.88 42.8646 74.98 43.1179 75.1267 43.3046C75.2734 43.4846 75.4534 43.6146 75.6667 43.6946C75.8867 43.7679 76.12 43.8046 76.3667 43.8046C76.7334 43.8046 77.0234 43.7312 77.2367 43.5846C77.45 43.4379 77.5567 43.2412 77.5567 42.9946C77.5567 42.7412 77.4534 42.5646 77.2467 42.4646C77.0467 42.3579 76.77 42.2712 76.4167 42.2046L76.0067 42.1346C75.6934 42.0812 75.4067 41.9979 75.1467 41.8846C74.8867 41.7712 74.68 41.6179 74.5267 41.4246C74.3734 41.2312 74.2967 40.9879 74.2967 40.6946C74.2967 40.2546 74.4667 39.9112 74.8067 39.6646C75.1467 39.4179 75.5967 39.2946 76.1567 39.2946C76.71 39.2946 77.1567 39.4212 77.4967 39.6746C77.8434 39.9212 78.0667 40.2712 78.1667 40.7246L77.4267 40.9146C77.3667 40.5612 77.2234 40.3146 76.9967 40.1746C76.77 40.0279 76.49 39.9546 76.1567 39.9546C75.8234 39.9546 75.56 40.0179 75.3667 40.1446C75.1734 40.2646 75.0767 40.4446 75.0767 40.6846C75.0767 40.9179 75.1667 41.0912 75.3467 41.2046C75.5334 41.3112 75.78 41.3912 76.0867 41.4446L76.4967 41.5146C76.8434 41.5746 77.1534 41.6579 77.4267 41.7646C77.7067 41.8646 77.9267 42.0112 78.0867 42.2046C78.2534 42.3979 78.3367 42.6512 78.3367 42.9646C78.3367 43.4446 78.1567 43.8146 77.7967 44.0746C77.4434 44.3346 76.9667 44.4646 76.3667 44.4646Z" fill="#FAFAF8"/>
<path d="M72.4105 32.6917L72.8202 32.6943C73.4176 32.6943 73.7162 32.3743 73.7162 31.7343V13.8783H77.7482V32.5663C77.7482 33.6543 77.4282 34.5183 76.7882 35.1583C76.1482 35.8197 75.2949 36.1503 74.2282 36.1503L72.4105 36.1527H10.2025L10.2025 32.6917H72.4105Z" fill="#FAFAF8"/>
</svg>