<svg width="292" height="163" viewBox="0 0 72.925 40.6722" fill="none" xmlns="http://www.w3.org/2000/svg">
<g id="MCPi">
<!-- M -->
<path d="M0 22.848V0.448H7.84L11.712 19.968H12.288L16.16 0.448H24V22.848H19.904V3.552H19.328L15.488 22.848H8.512L4.672 3.552H4.096V22.848H0Z" fill="#1a1a1a"/>
<!-- C -->
<path d="M36.7308 23.296C33.9574 23.296 31.7601 22.528 30.1388 20.992C28.5174 19.4347 27.7068 17.216 27.7068 14.336V8.96C27.7068 6.08 28.5174 3.872 30.1388 2.336C31.7601 0.778667 33.9574 0 36.7308 0C39.4828 0 41.6054 0.757334 43.0988 2.272C44.6134 3.76533 45.3708 5.824 45.3708 8.448V8.64H41.2108V8.32C41.2108 6.99733 40.8374 5.90933 40.0908 5.056C39.3654 4.20267 38.2454 3.776 36.7308 3.776C35.2374 3.776 34.0641 4.23467 33.2108 5.152C32.3574 6.06933 31.9307 7.31733 31.9307 8.896V14.4C31.9307 15.9573 32.3574 17.2053 33.2108 18.144C34.0641 19.0613 35.2374 19.52 36.7308 19.52C38.2454 19.52 39.3654 19.0933 40.0908 18.24C40.8374 17.3653 41.2108 16.2773 41.2108 14.976V14.4H45.3708V14.848C45.3708 17.472 44.6134 19.5413 43.0988 21.056C41.6054 22.5493 39.4828 23.296 36.7308 23.296Z" fill="#1a1a1a"/>
<!-- P -->
<path d="M48.8125 22.848V0.448H58.0285C59.4365 0.448 60.6738 0.736 61.7405 1.312C62.8285 1.86667 63.6712 2.656 64.2685 3.68C64.8872 4.704 65.1965 5.92 65.1965 7.328V7.776C65.1965 9.16267 64.8765 10.3787 64.2365 11.424C63.6178 12.448 62.7645 13.248 61.6765 13.824C60.6098 14.3787 59.3938 14.656 58.0285 14.656H53.0365V22.848H48.8125ZM53.0365 10.816H57.6125C58.6152 10.816 59.4258 10.5387 60.0445 9.984C60.6632 9.42933 60.9725 8.672 60.9725 7.712V7.392C60.9725 6.432 60.6632 5.67467 60.0445 5.12C59.4258 4.56533 58.6152 4.288 57.6125 4.288H53.0365V10.816Z" fill="#1a1a1a"/>
<!-- i dot (Sanity red accent) -->
<path fill-rule="evenodd" clip-rule="evenodd" d="M68.477 4.416C68.989 4.88533 69.6077 5.12 70.333 5.12C71.0797 5.12 71.6983 4.88533 72.189 4.416C72.6797 3.94667 72.925 3.328 72.925 2.56C72.925 1.792 72.6797 1.17333 72.189 0.704C71.6983 0.234667 71.0797 0 70.333 0C69.6077 0 68.989 0.234667 68.477 0.704C67.9863 1.17333 67.741 1.792 67.741 2.56C67.741 3.328 67.9863 3.94667 68.477 4.416Z" fill="#f03e2f"/>
<!-- i stem + underline bar (Sanity red accent) -->
<path d="M67.3597 25.7894L67.421 25.792C68.0183 25.792 68.317 25.472 68.317 24.832V6.976H72.349V25.664C72.349 26.752 72.029 27.616 71.389 28.256C70.749 28.9173 69.8957 29.248 68.829 29.248L67.3597 29.2503L0.00323439 29.2503L0.00323424 25.7894L67.3597 25.7894Z" fill="#f03e2f"/>
<!-- "sanity-image" subtitle -->
<g fill="#666">
<path d="M2.66984 38.5797C1.98734 38.5797 1.40984 38.4222 0.937336 38.1072C0.472336 37.7922 0.191086 37.2935 0.093586 36.611L0.937336 36.4197C0.997336 36.7797 1.10984 37.0647 1.27484 37.2747C1.43984 37.4772 1.64234 37.6235 1.88234 37.7135C2.12984 37.796 2.39234 37.8372 2.66984 37.8372C3.08234 37.8372 3.40859 37.7547 3.64859 37.5897C3.88859 37.4247 4.00859 37.2035 4.00859 36.926C4.00859 36.641 3.89234 36.4422 3.65984 36.3297C3.43484 36.2097 3.12359 36.1122 2.72609 36.0372L2.26484 35.9585C1.91234 35.8985 1.58984 35.8047 1.29734 35.6772C1.00484 35.5497 0.772336 35.3772 0.599836 35.1597C0.427336 34.9422 0.341086 34.6685 0.341086 34.3385C0.341086 33.8435 0.532336 33.4572 0.914836 33.1797C1.29734 32.9022 1.80359 32.7635 2.43359 32.7635C3.05609 32.7635 3.55859 32.906 3.94109 33.191C4.33109 33.4685 4.58234 33.8622 4.69484 34.3722L3.86234 34.586C3.79484 34.1885 3.63359 33.911 3.37859 33.7535C3.12359 33.5885 2.80859 33.506 2.43359 33.506C2.05859 33.506 1.76234 33.5772 1.54484 33.7197C1.32734 33.8547 1.21859 34.0572 1.21859 34.3272C1.21859 34.5897 1.31984 34.7847 1.52234 34.9122C1.73234 35.0322 2.00984 35.1222 2.35484 35.1822L2.81609 35.261C3.20609 35.3285 3.55484 35.4222 3.86234 35.5422C4.17734 35.6547 4.42484 35.8197 4.60484 36.0372C4.79234 36.2547 4.88609 36.5397 4.88609 36.8922C4.88609 37.4322 4.68359 37.8485 4.27859 38.141C3.88109 38.4335 3.34484 38.5797 2.66984 38.5797Z"/>
<path d="M8.02976 38.5797C7.64726 38.5797 7.29851 38.5122 6.98351 38.3772C6.66851 38.2422 6.42101 38.0472 6.24101 37.7922C6.06101 37.5372 5.97101 37.226 5.97101 36.8585C5.97101 36.4835 6.06101 36.176 6.24101 35.936C6.42101 35.6885 6.66851 35.5047 6.98351 35.3847C7.29851 35.2572 7.65101 35.1935 8.04101 35.1935H9.89726V34.7885C9.89726 34.3985 9.78101 34.091 9.54851 33.866C9.32351 33.641 8.98601 33.5285 8.53601 33.5285C8.09351 33.5285 7.74851 33.6372 7.50101 33.8547C7.25351 34.0647 7.08476 34.3497 6.99476 34.7097L6.16226 34.4397C6.25226 34.1322 6.39476 33.8547 6.58976 33.6072C6.78476 33.3522 7.04351 33.1497 7.36601 32.9997C7.69601 32.8422 8.08976 32.7635 8.54726 32.7635C9.25226 32.7635 9.79976 32.9472 10.1898 33.3147C10.5798 33.6747 10.7748 34.1847 10.7748 34.8447V37.331C10.7748 37.556 10.8798 37.6685 11.0898 37.6685H11.596V38.4222H10.8198C10.5723 38.4222 10.3735 38.3547 10.2235 38.2197C10.0735 38.0772 9.99851 37.8897 9.99851 37.6572V37.601H9.86351C9.78101 37.7435 9.66851 37.8935 9.52601 38.051C9.39101 38.201 9.20351 38.3247 8.96351 38.4222C8.72351 38.5272 8.41226 38.5797 8.02976 38.5797ZM8.13101 37.8147C8.65601 37.8147 9.07976 37.661 9.40226 37.3535C9.73226 37.0385 9.89726 36.5997 9.89726 36.0372V35.9135H8.07476C7.72226 35.9135 7.42976 35.9922 7.19726 36.1497C6.97226 36.2997 6.85976 36.5285 6.85976 36.836C6.85976 37.1435 6.97601 37.3835 7.20851 37.556C7.44851 37.7285 7.75601 37.8147 8.13101 37.8147Z"/>
<path d="M12.8132 38.4222V32.921H13.6795V33.8547H13.837C13.957 33.5922 14.1595 33.356 14.4445 33.146C14.737 32.9285 15.1645 32.8197 15.727 32.8197C16.1395 32.8197 16.507 32.906 16.8295 33.0785C17.1595 33.251 17.422 33.506 17.617 33.8435C17.812 34.181 17.9095 34.5972 17.9095 35.0922V38.4222H17.0207V35.1597C17.0207 34.6122 16.882 34.2147 16.6045 33.9672C16.3345 33.7197 15.967 33.596 15.502 33.596C14.9695 33.596 14.5345 33.7685 14.197 34.1135C13.867 34.4585 13.702 34.9722 13.702 35.6547V38.4222H12.8132Z"/>
<path d="M19.7126 38.4222V32.921H20.6014V38.4222H19.7126ZM20.1626 32.066C19.9676 32.066 19.8026 32.0022 19.6676 31.8747C19.5401 31.7472 19.4764 31.586 19.4764 31.391C19.4764 31.1885 19.5401 31.0235 19.6676 30.896C19.8026 30.7685 19.9676 30.7047 20.1626 30.7047C20.3576 30.7047 20.5189 30.7685 20.6464 30.896C20.7739 31.0235 20.8376 31.1885 20.8376 31.391C20.8376 31.586 20.7739 31.7472 20.6464 31.8747C20.5189 32.0022 20.3576 32.066 20.1626 32.066Z"/>
<path d="M24.4952 38.4222C24.1802 38.4222 23.9364 38.336 23.7639 38.1635C23.5989 37.991 23.5164 37.7547 23.5164 37.4547V33.6972H21.8627V32.921H23.5164V30.9635H24.4052V32.921H26.2052V33.6972H24.4052V37.3197C24.4052 37.5447 24.5139 37.6572 24.7314 37.6572H25.9577V38.4222H24.4952Z"/>
<path d="M28.3085 40.6722V39.8847H31.4585C31.676 39.8847 31.7847 39.7722 31.7847 39.5472V37.5447H31.6272C31.5522 37.7022 31.436 37.8597 31.2785 38.0172C31.1285 38.1672 30.9297 38.291 30.6822 38.3885C30.4347 38.4785 30.1235 38.5235 29.7485 38.5235C29.351 38.5235 28.9835 38.4372 28.646 38.2647C28.316 38.0922 28.0535 37.8372 27.8585 37.4997C27.671 37.1622 27.5772 36.7497 27.5772 36.2622V32.921H28.466V36.1947C28.466 36.7347 28.601 37.1285 28.871 37.376C29.1485 37.6235 29.5197 37.7472 29.9847 37.7472C30.5097 37.7472 30.941 37.5747 31.2785 37.2297C31.616 36.8847 31.7847 36.371 31.7847 35.6885V32.921H32.6735V39.7047C32.6735 40.0047 32.5872 40.241 32.4147 40.4135C32.2497 40.586 32.006 40.6722 31.6835 40.6722H28.3085Z"/>
<path d="M34.4882 35.936V35.1147H37.8182V35.936H34.4882Z"/>
<path d="M39.6528 38.4222V32.921H40.5416V38.4222H39.6528ZM40.1028 32.066C39.9078 32.066 39.7428 32.0022 39.6078 31.8747C39.4803 31.7472 39.4166 31.586 39.4166 31.391C39.4166 31.1885 39.4803 31.0235 39.6078 30.896C39.7428 30.7685 39.9078 30.7047 40.1028 30.7047C40.2978 30.7047 40.4591 30.7685 40.5866 30.896C40.7141 31.0235 40.7778 31.1885 40.7778 31.391C40.7778 31.586 40.7141 31.7472 40.5866 31.8747C40.4591 32.0022 40.2978 32.066 40.1028 32.066Z"/>
<path d="M42.4104 38.4222V32.921H43.2766V33.6072H43.4341C43.5391 33.4122 43.7116 33.2322 43.9516 33.0672C44.1916 32.9022 44.5291 32.8197 44.9641 32.8197C45.3916 32.8197 45.7366 32.9135 45.9991 33.101C46.2691 33.2885 46.4641 33.5172 46.5841 33.7872H46.7416C46.8691 33.5172 47.0604 33.2885 47.3154 33.101C47.5779 32.9135 47.9416 32.8197 48.4066 32.8197C48.7741 32.8197 49.0966 32.8947 49.3741 33.0447C49.6516 33.1947 49.8691 33.4122 50.0266 33.6972C50.1916 33.9747 50.2741 34.3085 50.2741 34.6985V38.4222H49.3854V34.7772C49.3854 34.4097 49.2766 34.121 49.0591 33.911C48.8491 33.6935 48.5529 33.5847 48.1704 33.5847C47.7654 33.5847 47.4316 33.716 47.1691 33.9785C46.9141 34.241 46.7866 34.6197 46.7866 35.1147V38.4222H45.8979V34.7772C45.8979 34.4097 45.7891 34.121 45.5716 33.911C45.3616 33.6935 45.0654 33.5847 44.6829 33.5847C44.2779 33.5847 43.9441 33.716 43.6816 33.9785C43.4266 34.241 43.2991 34.6197 43.2991 35.1147V38.4222H42.4104Z"/>
<path d="M53.7768 38.5797C53.3943 38.5797 53.0456 38.5122 52.7306 38.3772C52.4156 38.2422 52.1681 38.0472 51.9881 37.7922C51.8081 37.5372 51.7181 37.226 51.7181 36.8585C51.7181 36.4835 51.8081 36.176 51.9881 35.936C52.1681 35.6885 52.4156 35.5047 52.7306 35.3847C53.0456 35.2572 53.3981 35.1935 53.7881 35.1935H55.6443V34.7885C55.6443 34.3985 55.5281 34.091 55.2956 33.866C55.0706 33.641 54.7331 33.5285 54.2831 33.5285C53.8406 33.5285 53.4956 33.6372 53.2481 33.8547C53.0006 34.0647 52.8318 34.3497 52.7418 34.7097L51.9093 34.4397C51.9993 34.1322 52.1418 33.8547 52.3368 33.6072C52.5318 33.3522 52.7906 33.1497 53.1131 32.9997C53.4431 32.8422 53.8368 32.7635 54.2943 32.7635C54.9993 32.7635 55.5468 32.9472 55.9368 33.3147C56.3268 33.6747 56.5218 34.1847 56.5218 34.8447V37.331C56.5218 37.556 56.6268 37.6685 56.8368 37.6685H57.3431V38.4222H56.5668C56.3193 38.4222 56.1206 38.3547 55.9706 38.2197C55.8206 38.0772 55.7456 37.8897 55.7456 37.6572V37.601H55.6106C55.5281 37.7435 55.4156 37.8935 55.2731 38.051C55.1381 38.201 54.9506 38.3247 54.7106 38.4222C54.4706 38.5272 54.1593 38.5797 53.7768 38.5797ZM53.8781 37.8147C54.4031 37.8147 54.8268 37.661 55.1493 37.3535C55.4793 37.0385 55.6443 36.5997 55.6443 36.0372V35.9135H53.8218C53.4693 35.9135 53.1768 35.9922 52.9443 36.1497C52.7193 36.2997 52.6068 36.5285 52.6068 36.836C52.6068 37.1435 52.7231 37.3835 52.9556 37.556C53.1956 37.7285 53.5031 37.8147 53.8781 37.8147Z"/>
<path d="M58.1365 35.6997V35.5422C58.1365 34.9647 58.2527 34.4697 58.4852 34.0572C58.7177 33.6447 59.0327 33.326 59.4302 33.101C59.8277 32.876 60.2627 32.7635 60.7352 32.7635C61.3127 32.7635 61.7552 32.876 62.0627 33.101C62.3777 33.3185 62.6102 33.5622 62.7602 33.8322H62.9177V32.921H63.7615V39.7047C63.7615 40.0047 63.679 40.241 63.514 40.4135C63.349 40.586 63.109 40.6722 62.794 40.6722H59.059V39.8847H62.5577C62.7827 39.8847 62.8952 39.7722 62.8952 39.5472V37.4547H62.7377C62.6477 37.6197 62.5202 37.781 62.3552 37.9385C62.1902 38.096 61.9765 38.2272 61.714 38.3322C61.4515 38.4297 61.1252 38.4785 60.7352 38.4785C60.2627 38.4785 59.8277 38.366 59.4302 38.141C59.0327 37.916 58.7177 37.5972 58.4852 37.1847C58.2527 36.7647 58.1365 36.2697 58.1365 35.6997ZM60.9715 37.691C61.5415 37.691 62.0027 37.511 62.3552 37.151C62.7152 36.791 62.8952 36.296 62.8952 35.666V35.576C62.8952 34.9385 62.7152 34.4435 62.3552 34.091C62.0027 33.731 61.5415 33.551 60.9715 33.551C60.409 33.551 59.944 33.731 59.5765 34.091C59.2165 34.4435 59.0365 34.9385 59.0365 35.576V35.666C59.0365 36.296 59.2165 36.791 59.5765 37.151C59.944 37.511 60.409 37.691 60.9715 37.691Z"/>
<path d="M68.1445 38.5797C67.5895 38.5797 67.102 38.4635 66.682 38.231C66.262 37.991 65.9357 37.6572 65.7032 37.2297C65.4707 36.8022 65.3545 36.3072 65.3545 35.7447V35.6097C65.3545 35.0397 65.4707 34.541 65.7032 34.1135C65.9357 33.686 66.2582 33.356 66.6707 33.1235C67.0832 32.8835 67.5557 32.7635 68.0882 32.7635C68.6057 32.7635 69.0632 32.876 69.4607 33.101C69.8582 33.3185 70.1695 33.6335 70.3945 34.046C70.6195 34.4585 70.732 34.9422 70.732 35.4972V35.9022H66.2432C66.2657 36.4947 66.457 36.9597 66.817 37.2972C67.177 37.6272 67.627 37.7922 68.167 37.7922C68.6395 37.7922 69.0032 37.6835 69.2582 37.466C69.5132 37.2485 69.7082 36.9897 69.8432 36.6897L70.6082 37.061C70.4957 37.2935 70.3382 37.526 70.1357 37.7585C69.9407 37.991 69.682 38.186 69.3595 38.3435C69.0445 38.501 68.6395 38.5797 68.1445 38.5797ZM66.2545 35.171H69.832C69.802 34.661 69.6257 34.2635 69.3032 33.9785C68.9882 33.6935 68.5832 33.551 68.0882 33.551C67.5857 33.551 67.1732 33.6935 66.8507 33.9785C66.5282 34.2635 66.3295 34.661 66.2545 35.171Z"/>
</g>
</g>
</svg>
